<?xml version="1.0" encoding="utf-8"?>
<!-- Generator: Adobe Illustrator 15.1.0, SVG Export Plug-In . SVG Version: 6.00 Build 0)  -->
<!DOCTYPE svg PUBLIC "-//W3C//DTD SVG 1.1//EN" "http://www.w3.org/Graphics/SVG/1.1/DTD/svg11.dtd">
<svg version="1.1" id="Layer_1" xmlns="http://www.w3.org/2000/svg" xmlns:xlink="http://www.w3.org/1999/xlink" x="0px" y="0px"
	 width="200px" height="200px" viewBox="0 0 200 200" enable-background="new 0 0 200 200" xml:space="preserve">
<circle fill="#81C341" cx="99.913" cy="99.912" r="99.913"/>
<circle fill="#FFFFFF" cx="70.895" cy="45.737" r="10.722"/>
<path fill="#FFFFFF" d="M30.308,50.97c0,0,13.283,19.04,44.451,9.659c31.167-9.38,35.42-26.326,35.42-26.326s2.775-4.515,6.596-2.43
	c3.822,2.084,2.778,5.902,2.778,5.902c-0.086,13.028-30.558,30.213-30.558,30.213s1.041,21.53,5.209,23.961
	c0,0,21.878-9.377,38.546-5.904l-8.682,12.5c0,0-31.254,1.736-35.421,13.544c0,0-3.125,11.11,9.723,17.71l-6.252,10.418
	c0,0-36.115-18.058-30.21-64.938c0,0-31.242-2.945-39.588-17.015c0,0-2.779-2.782,1.389-6.599
	C27.878,47.848,30.308,50.97,30.308,50.97z"/>
<path fill="#FFFFFF" d="M94.9,144.733c0,0,61.118-93.418,82.299-83.345c0,0,19.45,15.979-46.88,98.973L94.9,144.733z"/>
<path fill="#FFFFFF" d="M30.604,153.301c3.062-4.303,6.123-8.605,9.184-12.907c0.305-0.428,1.806-0.333,2.273-0.378
	c2.341-0.229,4.695-0.348,7.048-0.389c18.201-0.312,37.118,4.026,51.874,15.074c4.567,3.42,8.028,7.28,13.302,9.649
	c8.496,3.814,17.952,3.355,25.844-1.727c1.955-1.259,3.58-2.681,5.646-3.741c2.647-1.359,5.385-2.561,8.194-3.547
	c6.015-2.113,14.69-4.235,19.936,0.721c-3.305-1.185-7.42-0.281-10.638,0.662c-7.931,2.326-14.262,7.204-21.093,11.594
	c-12.504,8.04-30.299,8.771-41.896-1.303C81.222,150.459,54.506,145.1,30.604,153.301C30.604,153.301,72.943,138.773,30.604,153.301
	z"/>
</svg>
