<?xml version="1.0" encoding="utf-8"?>
<!-- Generator: Adobe Illustrator 15.1.0, SVG Export Plug-In . SVG Version: 6.00 Build 0)  -->
<!DOCTYPE svg PUBLIC "-//W3C//DTD SVG 1.1//EN" "http://www.w3.org/Graphics/SVG/1.1/DTD/svg11.dtd">
<svg version="1.1" id="Layer_1" xmlns="http://www.w3.org/2000/svg" xmlns:xlink="http://www.w3.org/1999/xlink" x="0px" y="0px"
	 width="200px" height="200px" viewBox="0 0 200 200" enable-background="new 0 0 200 200" xml:space="preserve">
<circle fill="#81C341" cx="100" cy="100.088" r="99.913"/>
<g>
	<path fill="#FFFFFF" d="M127.83,34.765c0,10.829-8.786,19.613-19.613,19.613c-10.828,0-19.612-8.784-19.612-19.613
		c0-10.828,8.784-19.613,19.612-19.613C119.044,15.152,127.83,23.937,127.83,34.765z"/>
	<path fill="#FFFFFF" d="M70.188,128.086l-19.65,47.794c0,0-1.111,4.783,3.812,8.344c4.925,3.556,11.158,0,11.158,0l17.268-38.87
		L70.188,128.086z"/>
	<path fill="#FFFFFF" d="M59.387,60.234l-9.716,35.271c0,0-1.648,4.256,0,7.551c1.647,3.297,9.716,3.598,9.716,3.598
		s6.968,0.999,7.919,0.894c1.76-0.47,4.388-1.186,4.388-1.186s-0.48,7.127,0,9.199c0.48,2.071,0.386,4.218,1.742,7.448
		c1.355,3.229,5.272,7.524,5.272,7.524l16.582,21.776v27.069c0,0,0.837,6.517,8.699,6.97c7.861,0.453,9.702-6.616,9.702-6.616
		l0.232-29.907l-13.917-21.214l9.443-34.678l4.474,7.447c0,0,1.185,2.674,3.473,3.974c2.289,1.299,5.961,1.242,5.961,1.242
		l21.619,2.485c0,0,4.819,1.018,5.961-6.205c1.139-7.221-5.961-9.199-5.961-9.199l-15.403-1.977c0,0-4.229,0.085-4.719-0.753
		c-0.489-0.837-2.73-4.707-2.73-4.707l-9.444-16.14c0,0-4.595-6.571-9.189-8.21c-5.801-2.09-14.886,1.497-14.886,1.497l-7.223,5.715
		c0,0,1.045-1.487,1.394-5.715s-2.137-6.713-2.137-6.713l-10.678-3.973c0,0-6.187-0.918-8.201,2.203
		C59.679,58.125,59.387,60.234,59.387,60.234z"/>
	<path fill="#FFFFFF" d="M140.476,88.501l-19.49,91.804c0,0-1.218,3.175,2.213,4.615c4.872,1.028,5.422-3.222,5.422-3.222
		l19.688-90.392c0,0,0.396-3.804-2.816-4.613C142.283,85.883,140.476,88.501,140.476,88.501z"/>
</g>
</svg>
