<?xml version="1.0" encoding="utf-8"?>
<!-- Generator: Adobe Illustrator 17.0.0, SVG Export Plug-In . SVG Version: 6.00 Build 0)  -->
<!DOCTYPE svg PUBLIC "-//W3C//DTD SVG 1.1//EN" "http://www.w3.org/Graphics/SVG/1.1/DTD/svg11.dtd">
<svg version="1.1" id="Layer_1" xmlns="http://www.w3.org/2000/svg" xmlns:xlink="http://www.w3.org/1999/xlink" x="0px" y="0px"
	 width="512px" height="512px" viewBox="0 0 512 512" enable-background="new 0 0 512 512" xml:space="preserve">
<path fill="#92C83E" d="M243.739,2.923c115.42,0,208.965,92.073,208.965,205.651c0,113.575-169.773,302.34-208.965,302.34
	c-39.176,0-208.965-188.765-208.965-302.34C34.772,94.996,128.335,2.923,243.739,2.923z"/>
<g>
	<circle fill="#FFFFFF" cx="197.138" cy="119.846" r="16.799"/>
	<path fill="#FFFFFF" d="M133.545,128.044c0,0,20.813,29.834,69.648,15.134c48.838-14.7,55.5-41.251,55.5-41.251
		s4.347-7.074,10.332-3.808c5.989,3.266,4.354,9.247,4.354,9.247c-0.134,20.412-47.881,47.339-47.881,47.339
		s1.631,33.735,8.163,37.543c0,0,34.281-14.692,60.398-9.249l-13.602,19.585c0,0-48.972,2.72-55.5,21.222
		c0,0-4.899,17.408,15.235,27.75l-9.795,16.323c0,0-56.588-28.292-47.335-101.746c0,0-48.953-4.614-62.029-26.661
		c0,0-4.354-4.358,2.175-10.34C129.738,123.153,133.545,128.044,133.545,128.044z"/>
	<path fill="#FFFFFF" d="M234.75,274.961c0,0,95.766-146.373,128.954-130.592c0,0,30.473,25.038-73.454,155.076L234.75,274.961z"/>
	<path fill="#FFFFFF" d="M134.009,288.383c4.797-6.741,9.595-13.485,14.391-20.223c0.477-0.671,2.829-0.524,3.561-0.593
		c3.669-0.358,7.356-0.544,11.044-0.609c28.519-0.489,58.158,6.31,81.278,23.62c7.158,5.358,12.58,11.408,20.841,15.12
		c13.314,5.978,28.131,5.257,40.493-2.707c3.063-1.973,5.61-4.2,8.848-5.861c4.146-2.129,8.434-4.011,12.84-5.556
		c9.422-3.314,23.017-6.636,31.233,1.128c-5.179-1.856-11.627-0.442-16.669,1.038c-12.424,3.645-22.346,11.289-33.048,18.164
		c-19.591,12.601-47.475,13.743-65.646-2.042C213.32,283.93,171.46,275.532,134.009,288.383
		C134.009,288.383,200.348,265.619,134.009,288.383z"/>
</g>
</svg>
