<?xml version="1.0" encoding="utf-8"?>
<!-- Generator: Adobe Illustrator 17.0.0, SVG Export Plug-In . SVG Version: 6.00 Build 0)  -->
<!DOCTYPE svg PUBLIC "-//W3C//DTD SVG 1.1//EN" "http://www.w3.org/Graphics/SVG/1.1/DTD/svg11.dtd">
<svg version="1.1" id="Layer_1" xmlns="http://www.w3.org/2000/svg" xmlns:xlink="http://www.w3.org/1999/xlink" x="0px" y="0px"
	 width="200px" height="200px" viewBox="0 0 200 200" enable-background="new 0 0 200 200" xml:space="preserve">
<ellipse fill="#81C341" cx="99.415" cy="99.906" rx="99.237" ry="99.906"/>
<path fill="#FFFFFF" stroke="#FFFFFF" stroke-miterlimit="10" d="M117.887,55.065c0,0-35.236,12.019-43.295,16.206
	c-8.061,4.186-7.015,14.615-1.936,19.834c2.494,2.563,27.09,19.834,27.09,19.834l0.242,2.902c0,0-10.643,23.221-13.303,28.542
	c-2.66,5.322,1.693,8.225,1.693,8.225h10.885c0,0,17.415-35.315,20.077-41.846c2.661-6.53-4.216-9.674-4.216-9.674l-14.894-9.694
	l5.805-1.754l16.084-6.21c0,0,15.843-7.256,11.005-19.109C129.983,53.782,117.887,55.065,117.887,55.065z"/>
<path fill="#FFFFFF" stroke="#FFFFFF" stroke-miterlimit="10" d="M131.677,72.957c0,0,0.058,13.609,1.208,13.942
	c1.154,0.332,16.691,4.839,20.077,5.321c1.774,1.426,1.451,6.047,1.451,6.047s-1.647,4.957-6.53,3.783
	c-4.885-1.173-20.803-4.993-20.803-4.993s-5.079,0-5.079-7.014s0-8.224,0-8.224"/>
<circle fill="#FFFFFF" stroke="#FFFFFF" stroke-miterlimit="10" cx="148.071" cy="58.139" r="11.93"/>
<path fill="none" stroke="#FFFFFF" stroke-width="5" stroke-miterlimit="10" d="M127.126,90.049"/>
<path fill="none" stroke="#FFFFFF" stroke-width="5" stroke-miterlimit="10" d="M37.638,66.749"/>
<path fill="#FFFFFF" stroke="#FFFFFF" stroke-miterlimit="10" d="M-8,247"/>
<rect x="26.468" y="76.761" transform="matrix(0.9645 0.2642 -0.2642 0.9645 23.7974 -18.4948)" fill="#FFFFFF" width="108.386" height="4.937"/>
<rect x="42.833" y="57.317" transform="matrix(0.9686 0.2487 -0.2487 0.9686 18.6825 -9.0527)" fill="#FFFFFF" width="4.667" height="24.183"/>
<polygon fill="#FFFFFF" points="148.736,145.259 145.942,141.645 133.629,151.167 50.434,151.167 50.434,156.27 134.045,156.27 
	134.045,155.685 134.497,156.27 "/>
</svg>
