<?xml version="1.0" encoding="utf-8"?>
<!-- Generator: Adobe Illustrator 15.1.0, SVG Export Plug-In . SVG Version: 6.00 Build 0)  -->
<!DOCTYPE svg PUBLIC "-//W3C//DTD SVG 1.1//EN" "http://www.w3.org/Graphics/SVG/1.1/DTD/svg11.dtd">
<svg version="1.1" id="Layer_1" xmlns="http://www.w3.org/2000/svg" xmlns:xlink="http://www.w3.org/1999/xlink" x="0px" y="0px"
	 width="200px" height="200px" viewBox="0 0 200 200" enable-background="new 0 0 200 200" xml:space="preserve">
<circle fill="#81C341" cx="100.948" cy="101.054" r="99.913"/>
<g>
	<path fill="#FFFFFF" d="M123.561,47.2c-1.179-3.797-23.628-39.643-60.921-20.389C18.334,50.998,43.588,91.813,46.818,94.475
		c3.23,2.662,36.149,17.094,36.149,17.094s1.576,0.938,2.457-0.298c0.882-1.234-0.607-2.06-0.607-2.06L48.865,91.713
		c0,0-1.499-5.044,5.436-11.962c6.937-6.919,14.147-2.538,14.147-2.538l35.169,35.895c0,0,1.291,1.867,2.626,0.918
		c1.334-0.949-0.455-2.73-0.455-2.73S73.54,75.558,72.556,74.484s0.335-10.061,9.301-13.485c8.966-3.425,13.498,0.677,13.756,1.577
		s11.565,40.394,11.565,40.394s0.583,2.327,2.855,1.626c1.339-1.012,0.47-2.725,0.47-2.725S97.698,60.87,97.698,57.451
		c0.57-4.555,4.175-8.16,10.822-9.873c6.645-1.712,12.59,2.361,12.503,3.165s-3.395,31.39-3.395,31.39s-0.802,2.197,1.217,2.333
		c2.017,0.137,1.737-1.873,1.737-1.873S124.74,50.998,123.561,47.2z"/>
	<path fill="#FFFFFF" d="M90.86,116.683l14.048,6.453c0,0,3.785,1.52,6.447,3.604c2.654,2.085,3.74,5.447,4.002,7.03
		s0.571,4.939,2.655,8.166c2.085,3.227,11.007,6.453,11.007,6.453s1.606,0.847,3.313,2.176c1.705,1.328,2.318,3.798,2.318,3.798
		l1.586,7.504c0,0,0.392,1.908,3.04,1.786c3.702-0.333,3.702-3.601,3.702-3.601l-1.146-5.481c0,0-1.229-6.56-2.366-8.651
		c-1.141-2.091-5.323-3.419-5.323-3.419s-2.97-1.145-4.869-2.795c-1.898-1.65-2.725-6.506-2.725-6.506s-0.634-3.041-2.78-6.646
		c-2.146-3.605-6.993-5.318-6.993-5.318l-22.499-10.634c0,0-3.783-1.907-5.318,0.948S90.86,116.683,90.86,116.683z"/>
	<path fill="#FFFFFF" d="M115.357,101.114V90.292c0,0,0.187-2.283,3.033-2.847c2.947,0.186,3.035,2.847,3.035,2.847v10.822h-5.312"
		/>
	<path fill="#FFFFFF" d="M124.944,111.005c0,3.618-2.936,6.552-6.554,6.552c-3.616,0-6.552-2.934-6.552-6.552
		c0-3.617,2.936-6.552,6.552-6.552C122.009,104.453,124.944,107.388,124.944,111.005z"/>
	<path fill="#FFFFFF" d="M131.105,136.817c0,0,10.101,2.341,11.33,4.927c1.24,2.608,3.288,13.099,3.288,13.099
		s0.945,2.156,4.235,1.374c2.796-0.665,2.602-3.459,2.602-3.459l-2.468-11.393c0,0-0.48-2.232-1.899-3.419s-3.604-1.129-3.604-1.129
		l-13.483-0.962"/>
</g>
</svg>
