<?xml version="1.0" encoding="utf-8"?>
<!-- Generator: Adobe Illustrator 17.0.0, SVG Export Plug-In . SVG Version: 6.00 Build 0)  -->
<!DOCTYPE svg PUBLIC "-//W3C//DTD SVG 1.1//EN" "http://www.w3.org/Graphics/SVG/1.1/DTD/svg11.dtd">
<svg version="1.1" id="Layer_1" xmlns="http://www.w3.org/2000/svg" xmlns:xlink="http://www.w3.org/1999/xlink" x="0px" y="0px"
	 width="200px" height="200px" viewBox="0 0 200 200" enable-background="new 0 0 200 200" xml:space="preserve">
<circle fill="#81C341" cx="99.767" cy="100" r="99.913"/>
<path fill="#FFFFFF" stroke="#FFFFFF" stroke-miterlimit="10" d="M97.692,101.188c-3.607-0.166-4.929-4.262-4.581-7.36
	s3.772-5.192,5.779-5.032c2.007,0.158,20.656,1.638,20.656,1.638s6.68-19.289,8.804-21.451c3.166-2.579,1.981-1.517,10.36-4.037
	c10.225-3.076,14.387,4.961,14.387,4.961l9.917,34.255c0,0,1.849,6.454-0.8,10.207s-9.799,5.074-9.799,5.074l-34.951,4.639
	l3.47,27.751c0,0,0.251,6.392-6.938,7.977c-8.856,2.213-10.178-3.46-10.407-4.162c-0.29-0.886,0.679-0.873-3.248-35.229
	c0,0-0.625-6.359,0.626-8.03c1.355-3.128,8.862-3.753,8.862-3.753l23.245-2.592l-2.081-9.019c0,0-3.23,5.147-4.48,5.772
	S101.3,101.35,97.692,101.188z"/>
<path fill="#FFFFFF" stroke="#FFFFFF" stroke-miterlimit="10" d="M123.361,128.589c0,3.116,0,29.141,0,29.141
	s-0.574,3.468,5.031,3.468s37.29,0,37.29,0s3.785,0.234,3.814-5.204c0.033-5.438,0.154-22.466,0-27.404
	c0.045-3.951-7.283-3.469-7.283-3.469h-33.821C128.393,125.12,124.767,124.439,123.361,128.589z"/>
<path fill="#FFFFFF" stroke="#FFFFFF" stroke-miterlimit="10" d="M38.204,114.789c0,0,0.909-0.32,2.092,1.043
	c1.183,1.359,1.779,13.13,5.267,10.627c2.643,1.043-4.633,15.127-4.633,15.127l-1.415-1.549c0,0-0.509,2.263-0.703,3.122
	c-0.194,0.858,3.166,10.059,3.166,10.059l-9.211-2.257l3.582-7.802c0,0-2.735-4.813-3.517-8.673c-0.783-3.859-1.227-10.423,0-13.874
	c0.909-2.557,3.517-6.351,3.517-6.351v-60.6"/>
<circle fill="#FFFFFF" stroke="#FFFFFF" stroke-miterlimit="10" cx="133.093" cy="49.7" r="13.633"/>
<ellipse fill="#FFFFFF" cx="37.2" cy="121.548" rx="0.265" ry="0.377"/>
<rect x="31.09" y="73.86" transform="matrix(0.8781 0.4784 -0.4784 0.8781 44.609 -26.0714)" fill="#FFFFFF" width="84.783" height="1.339"/>
</svg>
