<?xml version="1.0" encoding="utf-8"?>
<!-- Generator: Adobe Illustrator 15.1.0, SVG Export Plug-In . SVG Version: 6.00 Build 0)  -->
<!DOCTYPE svg PUBLIC "-//W3C//DTD SVG 1.1//EN" "http://www.w3.org/Graphics/SVG/1.1/DTD/svg11.dtd">
<svg version="1.1" id="Layer_1" xmlns="http://www.w3.org/2000/svg" xmlns:xlink="http://www.w3.org/1999/xlink" x="0px" y="0px"
	 width="200px" height="200px" viewBox="0 0 200 200" enable-background="new 0 0 200 200" xml:space="preserve">
<circle fill="#81C341" cx="99.999" cy="101.672" r="99.913"/>
<polygon fill="#FFFFFF" points="100.948,52.891 100.948,169.684 157.412,169.684 "/>
<polygon fill="#FFFFFF" points="99.947,52.891 41.945,169.684 99.947,169.684 "/>
<polygon fill="#FFFFFF" points="30.805,157.599 40.408,154.02 40.408,174.604 "/>
<polygon fill="#FFFFFF" points="159.719,154.02 168.936,157.599 159.719,174.604 "/>
<line fill="#FFFFFF" stroke="#FFFFFF" stroke-miterlimit="10" x1="99.714" y1="52.821" x2="35.606" y2="171.671"/>
<polyline fill="none" stroke="#FFFFFF" stroke-miterlimit="10" points="165.863,169.684 100.948,52.891 100.948,22.464 "/>
<path fill="#FFFFFF" d="M100.948,23.806c0,0-9.603-0.001-14.981,7.606c0,0-8.452,11.635-11.91,2.686c0,0,2.307,9.397,13.445,5.146
	c0,0,10.372,2.012,11.908,6.04C100.948,49.312,100.948,23.806,100.948,23.806z"/>
</svg>
