<?xml version="1.0" standalone="no"?>
<!DOCTYPE svg PUBLIC "-//W3C//DTD SVG 20010904//EN"
 "http://www.w3.org/TR/2001/REC-SVG-20010904/DTD/svg10.dtd">
<svg version="1.0" xmlns="http://www.w3.org/2000/svg"
 width="512.000000pt" height="512.000000pt" viewBox="0 0 512.000000 512.000000"
 preserveAspectRatio="xMidYMid meet">
<metadata>
Created by potrace 1.12, written by Peter Selinger 2001-2015
</metadata>
<g transform="translate(0.000000,512.000000) scale(0.100000,-0.100000)"
fill="#000000" stroke="none">
<path d="M2424 4679 c-368 -33 -755 -185 -1059 -418 -84 -64 -266 -242 -338
-331 -200 -248 -349 -563 -412 -872 -90 -444 -34 -895 160 -1296 106 -219 206
-361 375 -536 181 -187 350 -309 581 -420 562 -271 1210 -271 1768 -1 232 113
400 235 581 421 169 175 269 317 375 536 270 557 270 1206 0 1766 -105 218
-205 361 -375 536 -181 187 -350 309 -581 420 -337 163 -701 229 -1075 195z
m433 -204 c222 -31 373 -79 578 -180 370 -184 646 -460 830 -830 85 -171 124
-283 162 -464 25 -116 27 -144 27 -356 0 -211 -2 -240 -27 -356 -38 -179 -78
-293 -162 -464 -183 -369 -460 -646 -830 -830 -297 -147 -554 -203 -883 -192
-300 10 -521 68 -792 208 -345 178 -618 459 -795 814 -85 171 -124 283 -162
464 -25 116 -27 144 -27 356 0 212 2 240 27 355 65 304 195 583 377 805 66 80
209 223 291 288 245 198 594 344 919 386 107 14 357 12 467 -4z"/>
<path d="M2470 3588 c-235 -33 -551 -205 -781 -425 -198 -189 -349 -417 -349
-527 0 -44 74 -191 142 -281 128 -169 334 -355 519 -470 413 -256 805 -256
1220 1 183 113 389 301 517 469 64 85 131 217 139 271 24 184 -389 642 -746
828 -236 122 -446 165 -661 134z m288 -323 c283 -67 485 -326 485 -620 0 -108
-20 -193 -71 -295 -73 -149 -247 -285 -413 -325 -81 -19 -216 -19 -296 0 -310
73 -525 386 -482 700 35 260 230 480 477 540 76 18 222 18 300 0z"/>
<path d="M2607 2915 c-9 -61 -47 -132 -99 -182 -45 -44 -117 -82 -155 -83 -63
0 -71 -51 -22 -148 114 -229 444 -229 558 0 27 53 31 72 31 143 0 71 -4 90
-31 143 -19 38 -47 76 -74 98 -48 39 -130 74 -174 74 -26 0 -29 -4 -34 -45z"/>
</g>
</svg>
