<?xml version="1.0" encoding="utf-8"?>
<!-- Generator: Adobe Illustrator 17.0.0, SVG Export Plug-In . SVG Version: 6.00 Build 0)  -->
<!DOCTYPE svg PUBLIC "-//W3C//DTD SVG 1.1//EN" "http://www.w3.org/Graphics/SVG/1.1/DTD/svg11.dtd">
<svg version="1.1" id="Layer_1" xmlns="http://www.w3.org/2000/svg" xmlns:xlink="http://www.w3.org/1999/xlink" x="0px" y="0px"
	 width="512px" height="512px" viewBox="0 0 512 512" enable-background="new 0 0 512 512" xml:space="preserve">
<path fill="#92C83E" d="M250.613,1C366.167,1,459.82,93.179,459.82,206.889c0,113.706-169.969,302.69-209.207,302.69
	c-39.221,0-209.207-188.984-209.207-302.69C41.404,93.179,135.076,1,250.613,1z"/>
<g>
	<path fill="#FFFFFF" stroke="#FFFFFF" stroke-width="0.8938" stroke-miterlimit="10" d="M355.381,152.405h-40.027
		c-20.822-23.355-27.376-31.138-35.353-31.138H222.59c-7.979,0-14.402,7.784-35.355,31.138h-8.627v-10.381h-22.058v10.381h-8.758
		c-11.417,0-21.732,8.562-21.732,19.915v114.173c0,11.356,10.314,21.602,21.732,21.602h207.589
		c11.415,0,19.784-10.248,19.784-21.602V172.32C375.164,160.967,366.796,152.405,355.381,152.405z M250.611,282.471
		c-30.552,0-55.463-24.91-55.463-55.465c0-30.554,24.911-55.463,55.463-55.463c30.555,0,55.467,24.91,55.467,55.463
		C306.078,257.562,281.167,282.471,250.611,282.471z M323.919,184.191h-11.03v-11.028h11.03V184.191z"/>
	<path fill="#FFFFFF" stroke="#FFFFFF" stroke-width="0.8938" stroke-miterlimit="10" d="M250.611,181.92
		c-24.911,0-45.086,20.177-45.086,45.084s20.175,45.088,45.086,45.088s45.088-20.178,45.088-45.088S275.521,181.92,250.611,181.92z
		 M250.611,247.766c-11.48,0-20.758-9.276-20.758-20.761c0-11.48,9.278-20.758,20.758-20.758c11.485,0,20.763,9.278,20.763,20.758
		C271.372,238.49,262.097,247.766,250.611,247.766z"/>
</g>
</svg>
