<?xml version="1.0" encoding="utf-8"?>
<!-- Generator: Adobe Illustrator 17.0.0, SVG Export Plug-In . SVG Version: 6.00 Build 0)  -->
<!DOCTYPE svg PUBLIC "-//W3C//DTD SVG 1.1//EN" "http://www.w3.org/Graphics/SVG/1.1/DTD/svg11.dtd">
<svg version="1.1" id="Layer_1" xmlns="http://www.w3.org/2000/svg" xmlns:xlink="http://www.w3.org/1999/xlink" x="0px" y="0px"
	 width="512px" height="512px" viewBox="0 0 512 512" enable-background="new 0 0 512 512" xml:space="preserve">
<path fill="#92C83E" d="M242.765,2.477c115.085,0,208.359,91.806,208.359,205.055c0,113.246-169.281,301.464-208.359,301.464
	c-39.063,0-208.359-188.218-208.359-301.464C34.404,94.282,127.696,2.477,242.765,2.477z"/>
<g>
	<path fill="#FFFFFF" d="M251.471,101.169c12.317,0,22.304,9.947,22.304,22.221c0,12.276-9.987,22.223-22.304,22.223
		c-12.325,0-22.312-9.947-22.312-22.223C229.158,111.116,239.146,101.169,251.471,101.169z"/>
	<path fill="#FFFFFF" d="M220.61,161.965c0.832-5.643,5.221-9.038,8.428-8.144l23.269,6.46c3.203,0.915,4.304,8.318,3.404,11.527
		l-19.178,78.436c-0.943,3.222-2.872,4.81-6.072,3.895l-15.727-3.389c-12.664-10.391-12.588-19.431-9.981-31.913L220.61,161.965z"/>
	<path fill="#FFFFFF" d="M200.647,252.095l-3.986,27.776c0,0-10.258,24.272-17.314,38.537c-5.331,10.785-7.839,18.568-4.173,20.516
		c5.621,2.982,13.183-3.701,21.099-15.998c13.281-20.628,20.116-30.948,22.672-35.958l4.014-13.081
		C222.959,273.886,203.24,260.884,200.647,252.095L200.647,252.095z"/>
	<path fill="#FFFFFF" d="M271.121,263.581l-31.061-30.721c-4.901-4.914-12.22-2.62-17.176,2.279
		c-4.942,4.859-14.632,9.447-9.752,14.39l39.509,33.136l-4.366,42.463c-0.326,10.472,0.292,16.537,6.973,17.237
		c6.231,0.646,8.983-12.275,9.622-15.545c0,0,7.992-40.666,8.949-46.407C274.795,274.671,275.384,267.919,271.121,263.581z"/>
	<path fill="#FFFFFF" d="M308.681,172.473l-23.42,10.972l-29.501-21.452c-4.679-3.389-11.256-2.336-14.66,2.357
		c-3.391,4.679-2.336,11.209,2.377,14.611l31.808,22.95c2.995,2.142,7.591,3.266,10.959,1.817c0,0,21.847-13.219,27.705-17.025
		c6.128-4.006,12.567-9.273,10.196-13.696C320.769,166.658,314.643,169.605,308.681,172.473z"/>
	<path fill="#FFFFFF" d="M307.889,160.876v178.006c0,0-0.235,3.683,2.211,3.613c1.982-0.05,2.078-4.195,2.078-4.195V159.879
		c0,0,0.298-2.099-2.078-2.099C307.724,157.778,307.889,159.076,307.889,160.876z"/>
	<path fill="#FFFFFF" d="M209.651,161.043c0,0-13.959,43.156-16.081,50.011c-2.107,6.856-9.497,11.616-19.921,8.449
		c-10.425-3.175-21.251-7.536-19.561-19.671c1.851-13.232,14.397-30.797,25.279-42.095
		C190.251,146.446,215.094,142.523,209.651,161.043L209.651,161.043z"/>
</g>
</svg>
