<?xml version="1.0" encoding="utf-8"?>
<!-- Generator: Adobe Illustrator 17.0.0, SVG Export Plug-In . SVG Version: 6.00 Build 0)  -->
<!DOCTYPE svg PUBLIC "-//W3C//DTD SVG 1.1//EN" "http://www.w3.org/Graphics/SVG/1.1/DTD/svg11.dtd">
<svg version="1.1" id="Layer_1" xmlns="http://www.w3.org/2000/svg" xmlns:xlink="http://www.w3.org/1999/xlink" x="0px" y="0px"
	 width="512px" height="512px" viewBox="0 0 512 512" enable-background="new 0 0 512 512" xml:space="preserve">
<path fill="#92C83E" d="M243.555,2.477c115.521,0,209.149,92.154,209.149,205.832c0,113.675-169.922,302.606-209.149,302.606
	c-39.211,0-209.149-188.931-209.149-302.606C34.404,94.63,128.05,2.477,243.555,2.477z"/>
<g>
	<path fill="#FFFFFF" d="M172.366,137.384l30.232,44.094v91.923c0,0,3.74-1.478,9.432-1.53c5.691-0.05,9.703,1.97,9.703,1.97
		v-28.847l2.775,1.668l31.616,6.1l14.981,26.071c0,0,6.005-0.017,9.982-2.775c3.983-2.755,7.211-4.993,7.211-4.993l-13.866-26.073
		c0,0-1.625-5.619-3.882-8.319c-2.261-2.701-9.321-3.409-9.321-3.409l-15.09-2.693l-1.105-42.88c0,0,10.661,8.908,17.196,20.416
		c6.535,11.506,12.652,32.925,12.652,32.925s3.578,4.706,7.793,3.766c4.215-0.938,4.448-6.827,4.448-6.827
		s-4.239-19.776-13.888-38.368c-9.653-18.594-29.662-26.363-29.662-26.363l-31.779-0.237l-28.248-41.666l65.922-36.669l-2.22-4.993
		l-44.375,23.298l-2.218-5.546l-10.541,5.546l-2.802-0.938l-12.947,7.062l-5.885,0.531l-2.773,3.884l-3.329,1.109l3.329,2.775
		l-9.986,6.1l-38.828,1.109l5.546,16.088l32.173-10.541l5.548,3.327L172.366,137.384z"/>
	<path fill="#FFFFFF" d="M139.057,322.482c0,0,6.356,0,14.124-7.531c7.766-7.537,8.71-15.774,8.71-15.774s8.241-4.471,12.478-4.708
		c4.237-0.235,10.356,4.945,10.356,4.945s7.768,4.227,11.768,3.525c4.002-0.702,7.299-18.357,7.299-18.357
		s-7.925,3.768-12.239,4.237c-4.316,0.471-12.947,1.414-12.947,1.414s7.064-6.12,12.239-9.651c5.179-3.531,13.418-5.65,20.951-4.708
		c7.533,0.942,15.72,6.058,22.363,7.064c6.641,1.004,15.77,3.06,30.364,1.646c14.595-1.412,23.779-8.71,23.779-8.71
		s-0.237-0.94,8.239,0c8.472,0.94,10.919,2.36,16.005,6.358c5.086,3.996,13.887,11.301,16.243,11.06
		c2.356-0.237-1.648-14.46-1.648-14.46l6.12,1.278c0,0,0.704,0.942,1.41-4.239c0.708-5.179-3.998-6.118-2.352-14.593
		c1.648-8.478,13.891-13.416,13.891-13.416s-6.032,6.684-7.064,9.179c-1.03,2.497-0.659,9.315-0.659,9.315s5.4-3.289,7.721-4.371
		c2.317-1.084,9.647-1.885,9.647-1.885s-7.876,5.045-9.647,6.827c-1.772,1.78-5.54,4.58-3.533,7.768
		c2.007,3.186,7.089,0.46,7.089,0.46l5.579-2.852c0,0,0.111,1.883-1.367,4.039c-1.485,2.156-3.294,2.488-3.294,2.488
		s0.136,2.137,3.998,3.163c3.859,1.026,8.594-0.518,8.594-0.518s-5.014,4.483-8.594,3.696c-3.87-0.308-5.885-1.293-5.885-1.293
		s-8.445-5.435-9.651-5.047c-1.208,0.388-3.04,1.933-1.414,4.338c1.629,2.406,23.98,21.143,23.98,21.143s2.905,2.796,2.856,5.928
		c0.469,4.473-7.299,3.529-7.299,3.529l-6.589-1.173l-5.654-0.708c-14.122-7.533-28.481-6.825-28.481-6.825
		s-4.945,0.469-4.471,5.177c0.469,4.71,4.235,4.473,4.235,4.473l13.657,2.825c0,0,23.304,1.414,26.129,1.414
		c2.825-0.004,14.122,9.418,14.122,9.418l-7.064,2.819c0,0-3.06-5.41-6.825-6.824c-3.768-1.416-21.659,0.704-21.659,0.704
		l-17.18,2.823l-19.104,0.097c0,0-9.048-0.089-21.855-3.157c-12.807-3.066-24.719-8.708-24.719-8.708s-7.058-2.587-10.828-2.591
		c-3.766,0-18.361,6.827-18.361,6.827s-9.059,4.675-15.536,4.708c-6.476,0.031-16.713-7.533-16.713-7.533l-14.83-8.472
		c0,0-1.414-0.94-4.237-1.414c-2.825-0.475-3.296,1.65-3.296,1.65s-7.768,12.476-12.476,15.77s-18.361,4.239-18.361,4.239
		L139.057,322.482z"/>
	<path fill="#FFFFFF" d="M220.449,144.268c0,0.366,3.002,3.612,8.167,5.297c5.168,1.685,12.499,1.807,12.455,2.162
		c-1.068,8.904-8.646,15.803-17.835,15.803c-9.922,0-17.965-8.043-17.965-17.965c0-9.922,8.043-17.965,17.965-17.965
		c4.196,0,8.055,1.437,11.111,3.847c0.793,0.624,8.402,0.582,13.919,1.974c4.179,1.057,6.182,1.545,7.062,4.196
		c0.886,2.649-6.399,5.078-6.399,5.078s-10.55,1.119-15.443,0.558C228.211,146.651,220.449,143.473,220.449,144.268z"/>
</g>
</svg>
