<?xml version="1.0" encoding="utf-8"?>
<!-- Generator: Adobe Illustrator 17.0.0, SVG Export Plug-In . SVG Version: 6.00 Build 0)  -->
<!DOCTYPE svg PUBLIC "-//W3C//DTD SVG 1.1//EN" "http://www.w3.org/Graphics/SVG/1.1/DTD/svg11.dtd">
<svg version="1.1" id="Layer_1" xmlns="http://www.w3.org/2000/svg" xmlns:xlink="http://www.w3.org/1999/xlink" x="0px" y="0px"
	 width="512px" height="512px" viewBox="0 0 512 512" enable-background="new 0 0 512 512" xml:space="preserve">
<path fill="#92C83E" d="M254.56,2.777c115.473,0,209.06,92.115,209.06,205.745C463.621,322.149,293.77,511,254.56,511
	C215.366,511,45.5,322.149,45.5,208.522C45.498,94.892,139.104,2.777,254.56,2.777z"/>
<g>
	<path fill="#FFFFFF" d="M163.181,106.682c0,11.689,0,23.378,0,35.065c13.489-1.798,26.975-3.596,40.464-5.395
		c0.654,29.495,16.633,61.306,50.352,58.9c-4.555,6.83-6.932,9.651-15.247,10.875c-8.419,1.238-17.082,1.206-25.574,0.87
		c-4.42-0.169-9.479-8.515-12.032-11.575c-3.814-4.58-7.424-9.387-10.387-14.57c-3.331-5.829-3.505-11.312-9.344-14.951
		c-5.361-3.338-11.078-6.111-16.827-8.708c-2.02-0.913-5.53-3.31-7.82-3.31c-8.126,0-16.247,0-24.371,0
		c-1.428,0-3.83-0.815-3.83,0.888c0,3.453,0,6.907,0,10.36c0,7.491,0,14.983,0,22.472c9.662-1.137,19.326-2.272,28.988-3.409
		c4.946-0.581,10.996-5.225,13.65,0.304c4.425,9.216,9.875,18.084,16.876,25.585c5.116,5.479,12,11.68,19.569,13.48
		c8.436,2,18.955,0.796,27.579,1.105c11.51,0.412,23.819-0.65,35.22,0.791c12.423,1.565,25.105,9.632,35.959,15.407
		c3.791,2.02,7.564,4.082,11.302,6.205c1.663,0.945,1.156,7.077,1.373,8.952c0.693,5.939,1.681,11.844,3.034,17.663
		c3.089,13.313,8.044,26.636,16.144,37.755c3.144,4.317,7.999,10.517,14.238,9.413c10.804-1.92-5.619-23.3-8.321-26.931
		c-14.199-19.113-1.643-43.468-8.346-64.238c-8.598-26.64-33.266-41.367-59.057-48.288c-9.502-2.549-18.232-2.62-27.796-3.489
		c-6.127-0.554-11.995-2.841-16.462-7.143c-7.648-7.353-10.231-18.578-10.961-28.796c-0.398-5.598-0.288-11.279,0.4-16.855
		c0.361-2.954-13.435-9.135-15.922-10.645c-6.932-4.208-9.467-5.566-17.395-6.093C180.153,107.811,171.667,107.248,163.181,106.682
		L163.181,106.682z"/>
	<path fill="#FFFFFF" d="M296.259,242.449c0,0-28.885,36.405-27.482,64.283c0,0,1.304,11.238,13.716,3.597
		c0,0,5.221-38.213,32.197-58.893L296.259,242.449z"/>
	<circle fill="#FFFFFF" cx="361.387" cy="230.135" r="16.807"/>
	<line fill="none" x1="341.445" y1="200.873" x2="355.832" y2="214.811"/>
	<circle fill="#FFFFFF" cx="335.145" cy="165.79" r="2.922"/>
	<circle fill="#FFFFFF" cx="345.71" cy="141.287" r="2.922"/>
	<circle fill="#FFFFFF" cx="345.71" cy="153.877" r="2.922"/>
	<circle fill="#FFFFFF" cx="358.777" cy="162.867" r="2.922"/>
	<circle fill="#FFFFFF" cx="335.145" cy="153.877" r="2.922"/>
</g>
</svg>
