<?xml version="1.0" encoding="utf-8"?>
<!-- Generator: Adobe Illustrator 17.0.0, SVG Export Plug-In . SVG Version: 6.00 Build 0)  -->
<!DOCTYPE svg PUBLIC "-//W3C//DTD SVG 1.1//EN" "http://www.w3.org/Graphics/SVG/1.1/DTD/svg11.dtd">
<svg version="1.1" id="Layer_1" xmlns="http://www.w3.org/2000/svg" xmlns:xlink="http://www.w3.org/1999/xlink" x="0px" y="0px"
	 width="512px" height="512px" viewBox="0 0 512 512" enable-background="new 0 0 512 512" xml:space="preserve">
<path fill="#92C83E" d="M248.351,2c115.244,0,208.647,91.933,208.647,205.338c0,113.402-169.515,301.88-208.647,301.88
	c-39.117,0-208.647-188.478-208.647-301.88C39.702,93.933,133.123,2,248.351,2z"/>
<g>
	<path fill="#FFFFFF" stroke="#FFFFFF" stroke-miterlimit="10" d="M242.638,225.296c-6.584-0.303-8.997-7.78-8.362-13.435
		s6.885-9.477,10.549-9.185c3.664,0.288,37.705,2.99,37.705,2.99s12.194-35.21,16.071-39.157c5.779-4.708,3.616-2.769,18.911-7.369
		c18.665-5.615,26.262,9.056,26.262,9.056l18.102,62.529c0,0,3.375,11.781-1.46,18.632s-17.887,9.262-17.887,9.262l-63.799,8.468
		l6.334,50.657c0,0,0.458,11.668-12.665,14.561c-16.166,4.04-18.579-6.316-18.997-7.597c-0.529-1.617,1.239-1.594-5.929-64.307
		c0,0-1.141-11.608,1.143-14.658c2.473-5.71,16.177-6.851,16.177-6.851l42.431-4.731l-3.799-16.463c0,0-5.896,9.395-8.178,10.536
		C292.966,229.374,249.224,225.592,242.638,225.296z"/>
	<path fill="#FFFFFF" stroke="#FFFFFF" stroke-miterlimit="10" d="M289.494,275.314c0,5.688,0,53.194,0,53.194
		s-1.048,6.33,9.184,6.33c10.231,0,68.069,0,68.069,0s6.909,0.427,6.962-9.499c0.06-9.927,0.281-41.009,0-50.023
		c0.082-7.212-13.294-6.332-13.294-6.332h-61.737C298.68,268.981,292.061,267.738,289.494,275.314z"/>
	<path fill="#FFFFFF" stroke="#FFFFFF" stroke-miterlimit="10" d="M134.05,250.123c0,0,1.659-0.584,3.819,1.904
		c2.16,2.481,3.247,23.967,9.615,19.398c4.824,1.904-8.456,27.613-8.456,27.613l-2.582-2.828c0,0-0.929,4.131-1.283,5.699
		c-0.354,1.566,5.779,18.362,5.779,18.362l-16.814-4.12l6.538-14.242c0,0-4.993-8.786-6.42-15.832
		c-1.429-7.044-2.24-19.026,0-25.326c1.659-4.668,6.42-11.593,6.42-11.593V138.54"/>
	<circle fill="#FFFFFF" stroke="#FFFFFF" stroke-miterlimit="10" cx="307.259" cy="131.31" r="24.886"/>
	
		<rect x="121.063" y="175.411" transform="matrix(0.8781 0.4784 -0.4784 0.8781 108.6833 -73.4114)" fill="#FFFFFF" width="154.762" height="2.444"/>
</g>
</svg>
