<?xml version="1.0" encoding="utf-8"?>
<!-- Generator: Adobe Illustrator 17.0.0, SVG Export Plug-In . SVG Version: 6.00 Build 0)  -->
<!DOCTYPE svg PUBLIC "-//W3C//DTD SVG 1.1//EN" "http://www.w3.org/Graphics/SVG/1.1/DTD/svg11.dtd">
<svg version="1.1" id="Layer_1" xmlns="http://www.w3.org/2000/svg" xmlns:xlink="http://www.w3.org/1999/xlink" x="0px" y="0px"
	 width="512px" height="512px" viewBox="0 0 512 512" enable-background="new 0 0 512 512" xml:space="preserve">
<path fill="#92C83E" d="M255.9,3.412c115.007,0,208.215,91.743,208.215,204.911c0,113.169-169.159,301.257-208.215,301.257
	c-39.035,0-208.214-188.086-208.214-301.257C47.686,95.154,140.913,3.412,255.9,3.412z"/>
<g>
	<path fill="#FFFFFF" d="M178.477,250.644l-14.253-35.639c0,0-0.139-2.188,0-8.835c0.498-3.859,2.743-6.513,2.743-6.513
		l23.029-31.247c0,0,5.932-7.463,8.218-8.779c4.077-1.24,14.258,0,14.258,0h51.537c0,0,8.303-0.245,8.225,8.779
		c-0.077,9.021-8.225,8.769-8.225,8.769l-41.123,1.095l12.062,36.732l23.034-4.377c0,0,5.097-1.261,8.228-1.661
		c2.232-0.927,9.31,3.296,9.31,3.296l31.249,23.576c0,0,4.014,6.257,0,11.522c-5.772,6.148-11.501,3.283-11.501,3.283
		l-26.295-16.242c0,0-3.051-2.612-4.067-2.478c-1.018,0.132-5.286,0.729-5.286,0.729l-34.543,8.668c0,0-3.705,1.924-9.311,1.648
		c-8.228-0.277-12.065-8.768-12.065-8.768l-13.158-37.287l-6.03,8.226c0,0-2.361,2.322-3.292,4.381
		c-0.126,2.243,1.649,6.577,1.649,6.577l10.962,25.777c0,0,1.529,7.043-4.384,9.931
		C184.193,254.372,178.477,250.644,178.477,250.644z"/>
	<path fill="#FFFFFF" d="M230.004,133.035c0,11.656-9.442,21.11-21.099,21.11c-11.654,0-21.102-9.456-21.102-21.11
		c0-11.654,9.448-21.109,21.102-21.109C220.563,111.928,230.004,121.381,230.004,133.035z"/>
	<path fill="#FFFFFF" d="M221.79,251.099l23.032,16.54l9.311,27.966c0,0,5.681,9.034,14.263,5.484
		c8.561-3.549,5.484-13.71,5.484-13.71l-8.225-25.222c0,0,0.132-1.428-2.744-7.675c-2.875-6.247-8.226-8.228-8.226-8.228
		l-6.856-4.379L221.79,251.099z"/>
	<polygon fill="#FFFFFF" points="353.916,184.299 327.601,228.166 327.601,244.067 306.768,262.158 293.611,301.089 
		273.881,319.721 259.618,340.554 353.916,340.554 	"/>
	<path fill="#FFFFFF" d="M273.881,96.048c0,0-11.065,67.503-12.068,70.277c-2.256,6.139-94.639,88.284-95.808,90.191
		c-1.17,1.907-5.8,3.878-5.815,15.379c-0.011,8.621,4.036,15.405,4.036,15.405l9.864,22.004l-1.096,24.669
		c0,0-0.054,5.518,4.337,5.34c4.387-0.175,4.439-4.797,4.439-4.797l0.866-20.5c0,0,0.248-4.65-0.532-7.964
		c-0.255-1.092-3.891-8.138-3.891-8.138l-7.414-16.575c0,0-4.399-10.859,0.088-16.955c2.885-3.914,12.811-13.287,12.811-13.287
		s84.946-77.681,86.238-81.97c1.428-4.689,12.639-73.081,12.639-73.081h-8.695V96.048z"/>
</g>
</svg>
