<?xml version="1.0" encoding="utf-8"?>
<!-- Generator: Adobe Illustrator 17.0.0, SVG Export Plug-In . SVG Version: 6.00 Build 0)  -->
<!DOCTYPE svg PUBLIC "-//W3C//DTD SVG 1.1//EN" "http://www.w3.org/Graphics/SVG/1.1/DTD/svg11.dtd">
<svg version="1.1" id="Layer_1" xmlns="http://www.w3.org/2000/svg" xmlns:xlink="http://www.w3.org/1999/xlink" x="0px" y="0px"
	 width="512px" height="512px" viewBox="0 0 512 512" enable-background="new 0 0 512 512" xml:space="preserve">
<g>
	<path fill="none" stroke="#F1F2F2" stroke-miterlimit="10" d="M91.942,137.694"/>
</g>
<g>
	<path fill="#FFFFFF" d="M115.214,163.223"/>
	<path fill="none" stroke="#FFFFFF" stroke-miterlimit="10" d="M115.214,163.223"/>
</g>
<g>
	<path fill="#FFFFFF" d="M123.031,129.88"/>
	<path fill="none" stroke="#FFFFFF" stroke-miterlimit="10" d="M123.031,129.88"/>
</g>
<path fill="none" stroke="#F1F2F2" stroke-miterlimit="10" d="M82.626,129.88"/>
<path fill="#92C83E" d="M242.765,2.477c115.085,0,208.359,91.806,208.359,205.055c0,113.246-169.281,301.464-208.359,301.464
	c-39.063,0-208.359-188.218-208.359-301.464C34.404,94.282,127.696,2.477,242.765,2.477z"/>
<path fill="#FFFFFF" d="M307.235,170.35c0,0,0.111,25.954,2.304,26.588c2.199,0.632,31.83,9.228,38.291,10.149
	c3.383,2.72,2.767,11.534,2.767,11.534s-3.14,9.453-12.455,7.216s-39.673-9.522-39.673-9.522s-9.685,0-9.685-13.379
	c0-13.377,0-15.685,0-15.685"/>
<g>
	<path fill="none" stroke="#F1F2F2" stroke-miterlimit="10" d="M287.839,189.216"/>
</g>
<g>
	<circle fill="#FFFFFF" stroke="#FFFFFF" stroke-width="0.9535" stroke-miterlimit="10" cx="186.085" cy="117.904" r="24.136"/>
	<path fill="#FFFFFF" stroke="#FFFFFF" stroke-width="0.9535" stroke-miterlimit="10" d="M124.89,312.583h124.7l38.216-70.397
		c0,0,14.078-12.068,26.148,0c0,0,34.191,20.114,38.215,22.124c4.022,2.014,26.147-5.029,30.17-22.124l-56.319-73.412
		c0,0-7.039-9.053-13.073-7.039l-2.012-30.172c0,0-11.061,27.155-13.075,22.126c0,0-30.17,16.09-44.249,30.172l-41.232,3.015
		c0,0-36.203-38.216-45.254-35.199c0,0-15.083,1.005-42.237,80.451L124.89,312.583L124.89,312.583z"/>
</g>
<path fill="#92C83E" d="M190.93,192.77c0,0-20.627,26.856-12.364,34.088c0,0,24.794,3.099,47.52-17.046
	c0,0-15.495,2.761-18.594,0.089c-3.101-2.672-3.101-2.672-3.101-2.672L190.93,192.77z"/>
<circle fill="#92C83E" cx="323.713" cy="198.216" r="8.127"/>
</svg>
