<?xml version="1.0" encoding="utf-8"?>
<!-- Generator: Adobe Illustrator 15.1.0, SVG Export Plug-In . SVG Version: 6.00 Build 0)  -->
<!DOCTYPE svg PUBLIC "-//W3C//DTD SVG 1.1//EN" "http://www.w3.org/Graphics/SVG/1.1/DTD/svg11.dtd">
<svg version="1.1" id="Layer_1" xmlns="http://www.w3.org/2000/svg" xmlns:xlink="http://www.w3.org/1999/xlink" x="0px" y="0px"
	 width="200px" height="200px" viewBox="0 0 200 200" enable-background="new 0 0 200 200" xml:space="preserve">
<circle fill="#81C341" cx="100.087" cy="100" r="99.913"/>
<g>
	<path fill="#FFFFFF" d="M55.997,50.513l17.08,24.912v51.933c0,0,2.114-0.835,5.329-0.864c3.215-0.029,5.482,1.112,5.482,1.112
		v-16.298l1.567,0.941l17.861,3.447l8.463,14.729c0,0,3.393-0.01,5.641-1.567c2.25-1.557,4.074-2.82,4.074-2.82l-7.834-14.729
		c0,0-0.918-3.175-2.193-4.7c-1.277-1.525-5.266-1.926-5.266-1.926l-8.525-1.521L97.05,78.936c0,0,6.024,5.032,9.715,11.534
		c3.691,6.501,7.148,18.602,7.148,18.602s2.021,2.659,4.402,2.128c2.381-0.53,2.514-3.856,2.514-3.856s-2.395-11.172-7.846-21.677
		c-5.453-10.505-16.757-14.894-16.757-14.894l-17.954-0.133l-15.959-23.54l37.243-20.717l-1.254-2.821L73.232,36.723l-1.253-3.133
		l-5.955,3.133l-1.583-0.53l-7.314,3.99l-3.325,0.3l-1.566,2.194l-1.881,0.627l1.881,1.567l-5.641,3.447l-21.937,0.627l3.133,9.089
		l18.177-5.955l3.134,1.88L55.997,50.513z"/>
	<path fill="#FFFFFF" d="M37.178,155.087c0,0,3.591,0,7.979-4.256c4.388-4.257,4.921-8.911,4.921-8.911s4.656-2.526,7.049-2.659
		c2.394-0.133,5.851,2.793,5.851,2.793s4.39,2.388,6.649,1.991c2.261-0.396,4.123-10.37,4.123-10.37s-4.477,2.128-6.916,2.394
		s-7.314,0.798-7.314,0.798s3.99-3.458,6.915-5.452c2.926-1.995,7.581-3.192,11.836-2.66s8.881,3.422,12.634,3.99
		c3.753,0.567,8.911,1.729,17.155,0.931c8.246-0.798,13.434-4.921,13.434-4.921s-0.133-0.531,4.654,0s6.17,1.333,9.043,3.592
		c2.873,2.258,7.846,6.384,9.176,6.249c1.33-0.134-0.93-8.169-0.93-8.169l3.457,0.723c0,0,0.398,0.532,0.797-2.395
		c0.4-2.927-2.26-3.457-1.328-8.245c0.93-4.789,7.846-7.58,7.846-7.58s-3.408,3.776-3.99,5.187
		c-0.582,1.411-0.371,5.263-0.371,5.263s3.051-1.858,4.361-2.47s5.451-1.064,5.451-1.064s-4.451,2.851-5.451,3.857
		c-1,1.006-3.129,2.588-1.994,4.389c1.133,1.8,4.004,0.26,4.004,0.26l3.152-1.611c0,0,0.062,1.063-0.773,2.282
		c-0.838,1.219-1.861,1.405-1.861,1.405s0.078,1.207,2.26,1.787c2.182,0.579,4.855-0.293,4.855-0.293s-2.832,2.532-4.855,2.088
		c-2.188-0.175-3.324-0.73-3.324-0.73s-4.771-3.07-5.453-2.852s-1.717,1.093-0.797,2.451c0.92,1.359,13.547,11.945,13.547,11.945
		s1.643,1.579,1.613,3.349c0.266,2.527-4.123,1.995-4.123,1.995l-3.723-0.665l-3.193-0.399c-7.979-4.256-16.092-3.855-16.092-3.855
		s-2.793,0.266-2.525,2.925c0.266,2.66,2.393,2.527,2.393,2.527l7.715,1.596c0,0,13.164,0.799,14.762,0.798
		c1.596-0.001,7.979,5.32,7.979,5.32l-3.99,1.595c0,0-1.729-3.058-3.855-3.855c-2.129-0.799-12.236,0.398-12.236,0.398l-9.707,1.595
		l-10.793,0.056c0,0-5.111-0.051-12.348-1.783s-13.964-4.922-13.964-4.922s-3.988-1.461-6.117-1.462
		c-2.128,0-10.374,3.855-10.374,3.855s-5.119,2.644-8.777,2.661s-9.442-4.256-9.442-4.256l-8.379-4.787c0,0-0.798-0.531-2.393-0.798
		c-1.596-0.268-1.861,0.931-1.861,0.931s-4.389,7.048-7.049,8.91c-2.66,1.861-10.374,2.394-10.374,2.394L37.178,155.087z"/>
	<path fill="#FFFFFF" d="M83.162,54.402c0,0.207,1.696,2.041,4.615,2.993c2.919,0.952,7.061,1.021,7.036,1.222
		c-0.603,5.03-4.885,8.928-10.076,8.928c-5.605,0-10.15-4.544-10.15-10.149s4.544-10.149,10.15-10.149
		c2.37,0,4.551,0.812,6.278,2.174c0.446,0.353,4.746,0.329,7.863,1.115c2.361,0.597,3.492,0.874,3.99,2.371
		c0.5,1.497-3.616,2.869-3.616,2.869s-5.96,0.633-8.724,0.316C87.546,55.749,83.162,53.953,83.162,54.402z"/>
</g>
</svg>
