<?xml version="1.0" encoding="utf-8"?>
<!-- Generator: Adobe Illustrator 15.1.0, SVG Export Plug-In . SVG Version: 6.00 Build 0)  -->
<!DOCTYPE svg PUBLIC "-//W3C//DTD SVG 1.1//EN" "http://www.w3.org/Graphics/SVG/1.1/DTD/svg11.dtd">
<svg version="1.1" id="Layer_1" xmlns="http://www.w3.org/2000/svg" xmlns:xlink="http://www.w3.org/1999/xlink" x="0px" y="0px"
	 width="200px" height="200px" viewBox="0 0 200 200" enable-background="new 0 0 200 200" xml:space="preserve">
<circle fill="#81C341" cx="100" cy="101.122" r="99.913"/>
<g>
	<path fill="#FFFFFF" d="M41.596,39.082c0,7.152,0,14.306,0,21.458c8.254-1.1,16.507-2.201,24.761-3.301
		c0.401,18.048,10.179,37.515,30.812,36.043c-2.787,4.18-4.243,5.906-9.33,6.654c-5.153,0.758-10.454,0.738-15.65,0.533
		c-2.706-0.104-5.801-5.211-7.363-7.083c-2.335-2.802-4.544-5.744-6.356-8.916c-2.039-3.567-2.145-6.922-5.718-9.149
		c-3.28-2.042-6.779-3.739-10.297-5.329c-1.236-0.559-3.384-2.025-4.785-2.025c-4.972,0-9.942,0-14.914,0
		c-0.874,0-2.343-0.499-2.343,0.543c0,2.113,0,4.227,0,6.34c0,4.584,0,9.168,0,13.751c5.913-0.695,11.826-1.39,17.739-2.086
		c3.026-0.356,6.729-3.198,8.354,0.186c2.708,5.641,6.042,11.067,10.328,15.657c3.131,3.353,7.343,7.147,11.976,8.249
		c5.162,1.225,11.599,0.487,16.876,0.676c7.043,0.252,14.576-0.397,21.553,0.483c7.602,0.958,15.363,5.895,22.004,9.429
		c2.321,1.236,4.63,2.498,6.917,3.797c1.018,0.578,0.706,4.331,0.84,5.478c0.423,3.634,1.029,7.247,1.856,10.809
		c1.891,8.146,4.922,16.3,9.879,23.104c1.925,2.642,4.895,6.436,8.713,5.76c6.612-1.175-3.439-14.258-5.091-16.479
		c-8.689-11.695-1.006-26.6-5.108-39.31c-5.262-16.302-20.356-25.313-36.139-29.548c-5.814-1.56-11.156-1.604-17.01-2.135
		c-3.749-0.339-7.339-1.739-10.074-4.371c-4.679-4.5-6.26-11.37-6.706-17.622c-0.244-3.426-0.176-6.902,0.243-10.314
		c0.222-1.807-8.221-5.59-9.744-6.513c-4.242-2.575-5.793-3.406-10.645-3.729C51.982,39.773,46.789,39.429,41.596,39.082
		L41.596,39.082z"/>
	<path fill="#FFFFFF" d="M123.031,122.163c0,0-17.676,22.277-16.817,39.337c0,0,0.798,6.877,8.394,2.201
		c0,0,3.195-23.384,19.702-36.039L123.031,122.163z"/>
	<circle fill="#FFFFFF" cx="162.885" cy="114.628" r="10.285"/>
	<line fill="#FFFFFF" x1="150.683" y1="96.721" x2="159.487" y2="105.25"/>
	<circle fill="#FFFFFF" cx="146.828" cy="75.252" r="1.788"/>
	<circle fill="#FFFFFF" cx="153.292" cy="60.258" r="1.789"/>
	<circle fill="#FFFFFF" cx="153.292" cy="67.963" r="1.789"/>
	<circle fill="#FFFFFF" cx="161.288" cy="73.465" r="1.788"/>
	<circle fill="#FFFFFF" cx="146.828" cy="67.963" r="1.788"/>
</g>
</svg>
