<?xml version="1.0" standalone="no"?>
<!DOCTYPE svg PUBLIC "-//W3C//DTD SVG 20010904//EN"
 "http://www.w3.org/TR/2001/REC-SVG-20010904/DTD/svg10.dtd">
<svg version="1.0" xmlns="http://www.w3.org/2000/svg"
 width="2133.000000pt" height="2132.000000pt" viewBox="0 0 2133.000000 2132.000000"
 preserveAspectRatio="xMidYMid meet">
<metadata>
Created by potrace 1.12, written by Peter Selinger 2001-2015
</metadata>
<g transform="translate(0.000000,2132.000000) scale(0.100000,-0.100000)"
fill="#000000" stroke="none">
<path d="M9890 21179 c-1102 -18 -2223 -100 -3135 -230 -1400 -198 -2331 -492
-2903 -919 -170 -126 -352 -325 -455 -496 -117 -194 -190 -473 -172 -658 42
-437 315 -828 1045 -1496 69 -63 126 -117 128 -120 8 -18 -919 104 -1912 250
-590 88 -710 96 -889 65 -507 -88 -884 -450 -1093 -1048 -337 -966 -225 -2696
311 -4802 811 -3188 2364 -6387 4131 -8511 1550 -1863 3221 -2912 4974 -3123
353 -43 570 -41 958 10 2079 269 4090 1774 5846 4377 1377 2040 2535 4677
3195 7275 249 977 402 1864 473 2732 18 217 18 1026 0 1195 -43 410 -112 716
-222 984 -245 594 -695 926 -1256 926 -113 0 -203 -10 -577 -65 -243 -36 -469
-69 -502 -75 -261 -42 -1409 -190 -1475 -190 l-35 0 90 83 c632 578 904 910
1023 1249 50 140 65 243 59 393 -18 444 -314 869 -822 1180 -731 448 -2000
751 -3815 909 -971 85 -1997 121 -2970 105z m1490 -1259 c1273 -54 2255 -155
3100 -316 605 -116 1135 -278 1440 -441 148 -79 300 -191 300 -221 0 -26 -147
-197 -304 -354 -83 -83 -320 -305 -526 -493 -681 -621 -869 -841 -959 -1124
-128 -398 79 -807 478 -946 414 -145 1252 -83 3595 266 220 32 403 59 408 59
15 0 51 -47 83 -110 122 -242 185 -706 172 -1265 -45 -1837 -780 -4544 -1886
-6945 -157 -340 -362 -760 -372 -760 -4 0 -317 485 -695 1078 -378 592 -702
1099 -719 1125 l-32 48 -858 -1418 c-472 -780 -861 -1421 -865 -1426 -3 -4
-262 398 -575 892 -472 745 -571 896 -580 883 -6 -10 -355 -594 -774 -1299
l-763 -1283 -1334 0 -1334 0 0 705 0 705 1206 2 1207 3 -1147 1130 -1147 1130
975 5 974 5 -1134 1292 c-624 711 -1134 1295 -1134 1298 0 3 378 5 841 5 705
0 840 2 837 14 -7 32 -2272 3816 -2279 3809 -4 -4 -519 -865 -1143 -1913
l-1135 -1905 846 -5 846 -5 -1136 -1295 -1137 -1295 974 -5 975 -5 -1146
-1130 -1147 -1130 1207 -3 1207 -2 0 -705 0 -705 -1102 2 -1103 3 -78 130
c-799 1335 -1519 2931 -2055 4555 -480 1454 -773 2792 -874 3990 -18 209 -17
894 0 1055 31 276 92 522 163 656 55 102 -8 101 616 10 1618 -238 2305 -314
2853 -315 306 -1 399 8 549 51 228 65 400 204 495 396 61 126 80 219 73 366
-6 135 -34 237 -100 365 -117 227 -303 429 -862 935 -499 452 -688 640 -822
813 l-47 61 49 45 c370 335 1402 621 2835 787 692 80 1377 125 2405 159 197 7
1355 -3 1595 -14z"/>
</g>
</svg>
