<?xml version="1.0" encoding="utf-8"?>
<!-- Generator: Adobe Illustrator 15.1.0, SVG Export Plug-In . SVG Version: 6.00 Build 0)  -->
<!DOCTYPE svg PUBLIC "-//W3C//DTD SVG 1.1//EN" "http://www.w3.org/Graphics/SVG/1.1/DTD/svg11.dtd">
<svg version="1.1" id="Layer_1" xmlns="http://www.w3.org/2000/svg" xmlns:xlink="http://www.w3.org/1999/xlink" x="0px" y="0px"
	 width="200px" height="200px" viewBox="0 0 200 200" enable-background="new 0 0 200 200" xml:space="preserve">
<circle fill="#81C341" cx="99.913" cy="99.912" r="99.913"/>
<path fill="#FFFFFF" d="M99.693,53.478L86.997,93.683l-15.047,41.32l-38.414,11.881c0,0-3.96,2.771-2.772,8.711
	c1.188,5.941,6.336,5.941,6.336,5.941l50.294-15.842l10.819-27.608l30.366,19.688v40.395c0,0,0.396,5.543,8.713,5.146
	c8.316-0.395,7.92-5.543,7.92-5.543v-51.086l-32.869-23.365l12.276-38.809l11.881,6.731c0,0,2.102,1.017,3.96,0.793
	s4.588-2.687,4.588-2.687l16.896-15.65c0,0,3.138-3.118,0.298-7.008c-4.082-4.628-8.559-1.294-8.559-1.294l-14.41,13.967
	l-11.089-6.732c0,0-1.584-7.921-8.712-11.485c-7.129-3.564-15.049,1.98-15.049,1.98l-13.861-5.148c0,0-1.975-0.662-3.961,0.555
	c-1.988,1.216-2.374,1.822-2.374,1.822l-17.49,16.373c0,0-2.746,4.425,0.423,7.197c3.168,2.772,7.562,0.586,7.562,0.586
	l15.049-14.653L99.693,53.478z"/>
<circle fill="#FFFFFF" cx="123.077" cy="26.11" r="13.266"/>
</svg>
