<?xml version="1.0" encoding="utf-8"?>
<!-- Generator: Adobe Illustrator 17.0.0, SVG Export Plug-In . SVG Version: 6.00 Build 0)  -->
<!DOCTYPE svg PUBLIC "-//W3C//DTD SVG 1.1//EN" "http://www.w3.org/Graphics/SVG/1.1/DTD/svg11.dtd">
<svg version="1.1" id="Layer_1" xmlns="http://www.w3.org/2000/svg" xmlns:xlink="http://www.w3.org/1999/xlink" x="0px" y="0px"
	 width="512px" height="512px" viewBox="0 0 512 512" enable-background="new 0 0 512 512" xml:space="preserve">
<path fill="#92C83E" d="M240.789,1.261c115.798,0,209.649,92.374,209.649,206.324c0,113.947-170.328,303.33-209.649,303.33
	c-39.304,0-209.649-189.383-209.649-303.33C31.138,93.635,125.007,1.261,240.789,1.261z"/>
<g>
	<path fill="none" stroke="#F1F2F2" stroke-miterlimit="10" d="M93.105,137.316"/>
</g>
<g>
	<path fill="none" stroke="#F1F2F2" stroke-miterlimit="10" d="M290.214,189.156"/>
</g>
<g>
	<path fill="#FFFFFF" d="M116.521,163.002"/>
	<path fill="none" stroke="#FFFFFF" stroke-miterlimit="10" d="M116.521,163.002"/>
</g>
<g>
	<path fill="#FFFFFF" d="M124.386,129.453"/>
	<path fill="none" stroke="#FFFFFF" stroke-miterlimit="10" d="M124.386,129.453"/>
</g>
<path fill="none" stroke="#F1F2F2" stroke-miterlimit="10" d="M83.732,129.453"/>
<path fill="#FFFFFF" stroke="#FFFFFF" stroke-miterlimit="10" d="M281.31,144.889c0,0-71.096,24.252-87.359,32.699
	c-16.266,8.447-14.154,29.489-3.905,40.019c5.031,5.172,54.662,40.021,54.662,40.021l0.489,5.856c0,0-21.474,46.854-26.842,57.59
	c-5.368,10.739,3.417,16.595,3.417,16.595h21.963c0,0,35.14-71.257,40.509-84.434c5.369-13.177-8.507-19.52-8.507-19.52
	l-30.052-19.56l11.713-3.539l32.454-12.529c0,0,31.967-14.641,22.206-38.557C305.716,142.299,281.31,144.889,281.31,144.889z"/>
<path fill="#FFFFFF" stroke="#FFFFFF" stroke-miterlimit="10" d="M309.134,180.99c0,0,0.117,27.46,2.438,28.131
	c2.327,0.669,33.677,9.763,40.511,10.737c3.579,2.878,2.928,12.201,2.928,12.201s-3.323,10.001-13.177,7.633
	c-9.857-2.366-41.975-10.075-41.975-10.075s-10.249,0-10.249-14.152c0-14.152,0-16.594,0-16.594"/>
<circle fill="#FFFFFF" stroke="#FFFFFF" stroke-miterlimit="10" cx="342.213" cy="151.09" r="24.071"/>
<rect x="96.849" y="188.665" transform="matrix(0.9645 0.2642 -0.2642 0.9645 58.4853 -47.5948)" fill="#FFFFFF" width="218.695" height="9.962"/>
<rect x="129.869" y="149.432" transform="matrix(0.9686 0.2487 -0.2487 0.9686 47.4638 -28.0095)" fill="#FFFFFF" width="9.416" height="48.795"/>
<polygon fill="#FFFFFF" points="343.554,326.876 337.916,319.585 313.071,338.797 145.206,338.797 145.206,349.094 313.911,349.094 
	313.911,347.914 314.823,349.094 "/>
</svg>
