<?xml version="1.0" encoding="utf-8"?>
<!-- Generator: Adobe Illustrator 15.1.0, SVG Export Plug-In . SVG Version: 6.00 Build 0)  -->
<!DOCTYPE svg PUBLIC "-//W3C//DTD SVG 1.1//EN" "http://www.w3.org/Graphics/SVG/1.1/DTD/svg11.dtd">
<svg version="1.1" id="Layer_1" xmlns="http://www.w3.org/2000/svg" xmlns:xlink="http://www.w3.org/1999/xlink" x="0px" y="0px"
	 width="200px" height="200px" viewBox="0 0 200 200" enable-background="new 0 0 200 200" xml:space="preserve">
<circle fill="#81C341" cx="100" cy="100.088" r="99.913"/>
<g>
	<path fill="#FFFFFF" d="M51.447,116.194l-8.736-21.844c0,0-0.085-1.341,0-5.415c0.305-2.365,1.681-3.992,1.681-3.992l14.115-19.153
		c0,0,3.636-4.574,5.038-5.38c2.499-0.76,8.74,0,8.74,0h31.587c0,0,5.089-0.15,5.041,5.38c-0.047,5.53-5.041,5.375-5.041,5.375
		l-25.206,0.671l7.394,22.514l14.118-2.683c0,0,3.124-0.773,5.043-1.018c1.368-0.569,5.706,2.02,5.706,2.02l19.153,14.45
		c0,0,2.46,3.835,0,7.062c-3.538,3.768-7.049,2.012-7.049,2.012l-16.117-9.955c0,0-1.87-1.601-2.493-1.519
		c-0.624,0.081-3.24,0.447-3.24,0.447l-21.172,5.313c0,0-2.271,1.179-5.707,1.01c-5.043-0.17-7.395-5.374-7.395-5.374l-8.065-22.853
		l-3.697,5.042c0,0-1.447,1.423-2.018,2.685c-0.077,1.375,1.01,4.031,1.01,4.031l6.72,15.799c0,0,0.936,4.317-2.687,6.087
		C54.951,118.479,51.447,116.194,51.447,116.194z"/>
	<ellipse fill="#FFFFFF" cx="70.097" cy="44.11" rx="12.933" ry="12.938"/>
	<path fill="#FFFFFF" d="M77.994,116.474l14.118,10.138l5.707,17.141c0,0,3.482,5.537,8.742,3.361
		c5.247-2.175,3.361-8.403,3.361-8.403l-5.041-15.459c0,0,0.081-0.875-1.682-4.704c-1.762-3.829-5.042-5.043-5.042-5.043
		l-4.202-2.684L77.994,116.474z"/>
	<polygon fill="#FFFFFF" points="158.978,75.53 142.848,102.417 142.848,112.163 130.079,123.251 122.015,147.113 109.922,158.533 
		101.18,171.303 158.978,171.303 	"/>
	<path fill="#FFFFFF" d="M109.922,21.439c0,0-6.782,41.374-7.397,43.075c-1.383,3.762-58.006,54.111-58.723,55.28
		s-3.555,2.377-3.564,9.426c-0.007,5.284,2.474,9.442,2.474,9.442l6.046,13.487l-0.671,15.12c0,0-0.034,3.382,2.657,3.273
		c2.689-0.107,2.721-2.94,2.721-2.94l0.532-12.565c0,0,0.151-2.85-0.326-4.881c-0.157-0.669-2.386-4.988-2.386-4.988l-4.543-10.159
		c0,0-2.696-6.656,0.054-10.392c1.767-2.399,7.851-8.144,7.851-8.144s52.065-47.612,52.857-50.242
		c0.875-2.874,7.747-44.792,7.747-44.792H109.922z"/>
</g>
</svg>
