<?xml version="1.0" encoding="utf-8"?>
<!-- Generator: Adobe Illustrator 17.0.0, SVG Export Plug-In . SVG Version: 6.00 Build 0)  -->
<!DOCTYPE svg PUBLIC "-//W3C//DTD SVG 1.1//EN" "http://www.w3.org/Graphics/SVG/1.1/DTD/svg11.dtd">
<svg version="1.1" id="Layer_1" xmlns="http://www.w3.org/2000/svg" xmlns:xlink="http://www.w3.org/1999/xlink" x="0px" y="0px"
	 width="512px" height="512px" viewBox="0 0 512 512" enable-background="new 0 0 512 512" xml:space="preserve">
<path fill="#92C83E" d="M243.055,1.261c115.798,0,209.649,92.374,209.649,206.324c0,113.947-170.328,303.33-209.649,303.33
	c-39.304,0-209.649-189.383-209.649-303.33C33.404,93.635,127.274,1.261,243.055,1.261z"/>
<g>
	<path fill="#FFFFFF" d="M286.639,124.843c-2.251-7.251-45.119-75.7-116.332-38.934c-84.604,46.186-36.381,124.124-30.213,129.208
		s69.028,32.644,69.028,32.644s3.009,1.791,4.692-0.569c1.684-2.356-1.159-3.934-1.159-3.934l-68.652-33.415
		c0,0-2.862-9.632,10.38-22.84c13.247-13.214,27.014-4.848,27.014-4.848l67.157,68.545c0,0,2.465,3.565,5.014,1.753
		c2.547-1.812-0.869-5.213-0.869-5.213s-61.579-68.243-63.458-70.294c-1.879-2.051,0.64-19.212,17.761-25.752
		c17.121-6.54,25.775,1.293,26.268,3.011c0.493,1.719,22.084,77.134,22.084,77.134s1.113,4.444,5.452,3.105
		c2.557-1.932,0.897-5.204,0.897-5.204s-24.454-78.293-24.454-84.822c1.088-8.698,7.972-15.582,20.665-18.853
		c12.689-3.269,24.041,4.508,23.875,6.044s-6.483,59.941-6.483,59.941s-1.531,4.195,2.324,4.457
		c3.852,0.262,3.317-3.577,3.317-3.577S288.892,132.095,286.639,124.843z"/>
	<path fill="#FFFFFF" d="M224.196,257.524l26.825,12.322c0,0,7.228,2.903,12.311,6.882c5.068,3.98,7.142,10.403,7.642,13.424
		c0.5,3.025,1.09,9.431,5.07,15.593c3.981,6.162,21.018,12.322,21.018,12.322s3.067,1.619,6.326,4.155
		c3.256,2.536,4.426,7.254,4.426,7.254l3.029,14.329c0,0,0.75,3.643,5.807,3.409c7.067-0.634,7.067-6.874,7.067-6.874l-2.186-10.468
		c0,0-2.349-12.525-4.52-16.518c-2.179-3.995-10.163-6.531-10.163-6.531s-5.671-2.186-9.299-5.337
		c-3.624-3.151-5.204-12.424-5.204-12.424s-1.211-5.807-5.309-12.689c-4.098-6.884-13.353-10.155-13.353-10.155l-42.963-20.306
		c0,0-7.224-3.641-10.155,1.81C217.635,253.176,224.196,257.524,224.196,257.524z"/>
	<path fill="#FFFFFF" d="M270.974,227.796v-20.663c0,0,0.357-4.36,5.792-5.438c5.627,0.355,5.795,5.438,5.795,5.438v20.663h-10.143"
		/>
	<path fill="#FFFFFF" d="M289.281,246.683c0,6.909-5.606,12.511-12.515,12.511c-6.905,0-12.511-5.603-12.511-12.511
		c0-6.907,5.606-12.511,12.511-12.511C283.675,234.172,289.281,239.775,289.281,246.683z"/>
	<path fill="#FFFFFF" d="M301.046,295.973c0,0,19.286,4.472,21.637,9.41c2.368,4.978,6.277,25.011,6.277,25.011
		s1.805,4.117,8.089,2.626c5.337-1.272,4.969-6.605,4.969-6.605l-4.715-21.755c0,0-0.917-4.262-3.624-6.531
		c-2.712-2.265-6.884-2.156-6.884-2.156l-25.746-1.835"/>
</g>
</svg>
