<?xml version="1.0" standalone="no"?>
<!DOCTYPE svg PUBLIC "-//W3C//DTD SVG 20010904//EN"
 "http://www.w3.org/TR/2001/REC-SVG-20010904/DTD/svg10.dtd">
<svg version="1.0" xmlns="http://www.w3.org/2000/svg"
 width="512.000000pt" height="512.000000pt" viewBox="0 0 512.000000 512.000000"
 preserveAspectRatio="xMidYMid meet">
<metadata>
Created by potrace 1.12, written by Peter Selinger 2001-2015
</metadata>
<g transform="translate(0.000000,512.000000) scale(0.100000,-0.100000)"
fill="#000000" stroke="none">
<path d="M2813 5005 c-17 -7 -38 -24 -46 -37 -24 -37 -247 -565 -247 -583 0
-32 33 -86 61 -100 36 -19 82 -19 119 0 41 21 334 534 334 586 1 52 -28 87
-97 120 -70 33 -79 34 -124 14z"/>
<path d="M3788 4367 c-42 -18 -426 -454 -440 -499 -24 -80 60 -164 140 -140
49 15 481 399 500 444 8 18 11 46 8 63 -12 61 -107 146 -163 145 -10 -1 -30
-6 -45 -13z"/>
<path d="M1580 4326 c-80 -18 -129 -44 -185 -101 -62 -62 -92 -123 -107 -221
-65 -416 396 -1160 1082 -1749 392 -336 785 -549 1084 -587 309 -39 506 124
506 418 0 68 -24 194 -56 292 -33 99 -146 332 -219 447 -140 221 -385 517
-606 730 -572 552 -1149 849 -1499 771z m404 -427 c147 -50 368 -183 593 -359
139 -109 464 -433 577 -575 245 -308 396 -601 399 -775 1 -112 -10 -124 -118
-123 -89 1 -176 27 -310 92 -246 121 -491 306 -766 580 -198 199 -314 336
-438 523 -168 251 -239 434 -232 598 2 51 12 61 72 69 64 8 139 -2 223 -30z"/>
<path d="M2340 3211 c-54 -18 -111 -53 -108 -66 10 -44 489 -524 533 -533 8
-2 25 18 42 50 24 46 28 65 28 138 0 75 -4 93 -32 152 -42 88 -137 184 -227
228 -53 26 -82 34 -139 36 -40 2 -83 0 -97 -5z"/>
<path d="M1187 3324 c-7 -214 -25 -332 -73 -478 -87 -260 -190 -408 -523 -749
-264 -271 -267 -276 -265 -437 5 -358 363 -790 764 -922 80 -26 111 -31 195
-31 157 -1 168 6 425 258 306 300 402 375 612 475 189 90 361 128 622 137
l168 6 -58 22 c-102 39 -206 90 -312 153 -65 39 -115 62 -134 62 -52 0 -229
-41 -332 -77 -107 -37 -185 -74 -280 -131 -57 -34 -61 -35 -105 -24 -69 18
-218 95 -293 152 -169 128 -323 333 -374 497 l-26 82 35 58 c56 93 93 173 130
279 35 100 77 283 77 334 0 16 -24 69 -56 121 -68 116 -118 219 -159 328 l-32
83 -6 -198z"/>
<path d="M4460 3413 c-8 -3 -133 -73 -278 -155 -276 -158 -292 -170 -292 -238
0 -17 7 -44 15 -59 14 -28 68 -61 100 -61 23 0 576 238 598 257 9 9 22 33 28
54 11 34 9 44 -19 102 -16 36 -41 72 -54 81 -28 18 -76 28 -98 19z"/>
<path d="M2135 1081 c-56 -14 -80 -33 -252 -204 l-173 -171 75 -37 c70 -34
117 -65 413 -267 290 -199 461 -230 586 -106 75 76 364 400 383 432 54 88 18
163 -109 227 -86 43 -131 45 -249 11 -159 -45 -136 -48 -389 49 -169 64 -232
79 -285 66z"/>
</g>
</svg>
