<?xml version="1.0" standalone="no"?>
<!DOCTYPE svg PUBLIC "-//W3C//DTD SVG 20010904//EN"
 "http://www.w3.org/TR/2001/REC-SVG-20010904/DTD/svg10.dtd">
<svg version="1.0" xmlns="http://www.w3.org/2000/svg"
 width="512.000000pt" height="512.000000pt" viewBox="0 0 512.000000 512.000000"
 preserveAspectRatio="xMidYMid meet">
<metadata>
Created by potrace 1.12, written by Peter Selinger 2001-2015
</metadata>
<g transform="translate(0.000000,512.000000) scale(0.100000,-0.100000)"
fill="#000000" stroke="none">
<path d="M2355 4924 c-361 -37 -655 -174 -901 -419 -209 -209 -340 -452 -394
-734 -75 -393 7 -732 279 -1148 43 -66 170 -245 280 -397 362 -496 513 -732
693 -1082 83 -161 103 -194 128 -204 24 -10 36 -10 60 0 25 10 45 43 128 204
195 378 325 579 770 1189 346 473 467 725 502 1047 26 236 -28 527 -139 748
-96 192 -267 395 -436 520 -226 167 -516 266 -805 276 -69 2 -143 2 -165 0z
m358 -503 c332 -88 596 -352 689 -688 31 -113 31 -373 0 -486 -93 -335 -354
-596 -689 -689 -113 -31 -373 -31 -486 0 -336 93 -600 357 -688 689 -32 118
-37 311 -11 433 78 377 367 669 742 751 115 25 330 21 443 -10z"/>
<path d="M2449 4272 c-6 -10 -53 -117 -103 -238 l-92 -219 -246 -5 c-135 -3
-250 -8 -254 -12 -11 -11 5 -26 192 -184 96 -81 174 -152 174 -158 0 -6 -28
-122 -62 -258 -50 -197 -60 -249 -51 -259 14 -14 7 -18 325 200 l136 93 227
-153 c177 -120 228 -150 238 -140 9 9 -1 65 -51 259 -34 136 -62 252 -62 258
0 6 78 77 174 158 201 169 206 174 185 187 -8 5 -122 9 -254 9 l-240 1 -69
167 c-134 322 -142 335 -167 294z"/>
<path d="M1710 1440 c-239 -87 -413 -220 -483 -367 -27 -58 -32 -80 -32 -143
0 -63 5 -85 32 -143 111 -235 473 -417 953 -478 122 -16 458 -16 580 0 305 39
581 132 755 256 88 62 161 145 198 222 27 58 32 80 32 143 0 63 -5 85 -32 143
-70 148 -250 284 -489 370 l-70 25 -57 -97 c-31 -54 -57 -101 -57 -104 0 -3
24 -13 54 -21 30 -9 94 -36 143 -61 263 -131 258 -305 -12 -436 -109 -53 -229
-88 -393 -116 -150 -25 -581 -25 -727 0 -303 53 -534 162 -581 274 -18 42 -18
97 0 132 37 70 188 167 324 207 28 9 52 18 52 22 0 4 -26 50 -58 103 l-57 97
-75 -28z"/>
</g>
</svg>
