<?xml version="1.0" standalone="no"?>
<!DOCTYPE svg PUBLIC "-//W3C//DTD SVG 20010904//EN"
 "http://www.w3.org/TR/2001/REC-SVG-20010904/DTD/svg10.dtd">
<svg version="1.0" xmlns="http://www.w3.org/2000/svg"
 width="512.000000pt" height="512.000000pt" viewBox="0 0 512.000000 512.000000"
 preserveAspectRatio="xMidYMid meet">
<metadata>
Created by potrace 1.12, written by Peter Selinger 2001-2015
</metadata>
<g transform="translate(0.000000,512.000000) scale(0.100000,-0.100000)"
fill="#000000" stroke="none">
<path d="M2395 4911 c-22 -11 -52 -30 -67 -44 -14 -14 -291 -326 -615 -692
-382 -433 -598 -686 -618 -722 -24 -46 -31 -71 -33 -132 -6 -119 36 -207 131
-276 l27 -20 -250 -285 c-137 -157 -259 -303 -270 -325 -44 -91 -44 -208 0
-295 36 -70 108 -124 199 -146 l33 -9 -237 -275 c-266 -307 -288 -341 -288
-449 -1 -97 25 -165 88 -227 33 -33 66 -56 91 -63 26 -7 259 -11 710 -11 l671
0 6 -137 c3 -79 13 -164 22 -198 26 -94 83 -194 150 -261 97 -98 207 -144 345
-144 148 1 241 40 345 144 119 120 163 237 172 458 l6 138 692 2 693 3 43 30
c92 65 133 148 132 266 -1 109 -22 142 -287 449 l-238 275 33 8 c66 17 107 40
147 81 60 61 85 125 86 217 0 116 -18 144 -294 459 -133 151 -245 279 -250
285 -6 8 7 23 38 46 28 21 59 58 77 90 28 50 30 62 30 154 0 93 -2 104 -30
152 -26 44 -1148 1328 -1230 1407 -67 65 -179 85 -260 47z m680 -932 c319
-362 581 -663 583 -669 2 -6 -89 -11 -247 -12 l-250 -3 444 -507 c245 -280
445 -510 445 -513 0 -3 -139 -5 -310 -5 -170 0 -310 -2 -310 -5 0 -4 368 -432
767 -890 62 -71 113 -133 113 -137 0 -5 -819 -8 -1821 -8 -1155 0 -1819 4
-1817 10 2 5 66 82 144 172 77 90 275 318 439 508 l299 345 -312 3 c-172 1
-312 4 -312 6 0 3 200 233 444 513 l444 508 -250 3 c-151 1 -248 6 -246 12 4
12 1161 1328 1168 1329 3 0 266 -297 585 -660z m-327 -3086 c-3 -181 -5 -202
-26 -249 -44 -97 -129 -154 -230 -154 -103 0 -181 50 -229 148 -27 56 -28 61
-31 255 l-4 197 262 0 262 0 -4 -197z"/>
</g>
</svg>
